# xmcd
#
# Track frame offsets:
#	150
#	12307
#	29370
#	44005
#	60215
#	75230
#	91165
#	105815
#	123522
#	145977
#	164017
#	181127
#	196397
#	212012
#	230090
#
# Disc length: 3287 seconds
#
# Revision: 2
# Processed by: cddbd v1.5.2PL0 Copyright (c) Steve Scherf et al.
# Submitted via: EZCDAudioConverter 9.1.0.1
#
DISCID=bf0cd50f
DTITLE=ROBÉRIO and SEUS TECLADOS - VOL. 09 [CD MCCD 2051) CD CENTER
DYEAR=2003
DGENRE=FORRÓ
TTITLE0=ESTOU APAIXONADO POR VOCÊ (BY GILMAR SINISTRO)
TTITLE1=PEQUENININHA (BY GILMAR SINISTRO)
TTITLE2=NO BOLE BOLE DA SANFONA (BY GILMAR SINISTRO)
TTITLE3=NAMORO NOVO (BY GILMAR SINISTRO)
TTITLE4=TENHO UM AMOR MELHOR QUE O SEU (BY GILMAR SINISTRO)
TTITLE5=VIVO A TE ESPERAR (BY GILMAR SINISTRO)
TTITLE6=ZÉ DO ROCK (BY GILMAR SINISTRO)
TTITLE7=DECLARAÇÃO DE AMOR (BY GILMAR SINISTRO)
TTITLE8=GABIRÓBA (BY GILMAR SINISTRO)
TTITLE9=QUERO ME CASAR (BY GILMAR SINISTRO)
TTITLE10=ME PERDOA (BY GILMAR SINISTRO)
TTITLE11=QUERO ROUBAR UM BEIJO SEU (BY GILMAR SINISTRO)
TTITLE12=EU VOU LAÇAR (BY GILMAR SINISTRO)
TTITLE13=PAIXÃO POR ELA (BY GILMAR SINISTRO)
TTITLE14=A DOR DE DOIS AMIGOS (PART. ESP. PAULINHO BABILÔNIA) (BY GILMAR SINIS
TTITLE14=TRO)
EXTD=
EXTT0=
EXTT1=
EXTT2=
EXTT3=
EXTT4=
EXTT5=
EXTT6=
EXTT7=
EXTT8=
EXTT9=
EXTT10=
EXTT11=
EXTT12=
EXTT13=
EXTT14=
PLAYORDER=
